<svg xmlns="http://www.w3.org/2000/svg" width="107" height="24" viewBox="0 0 107 24">
    <g fill="none" fill-rule="nonzero">
        <g fill="#63DC3E">
            <path d="M0 13.844v-3.74c0-1.95 1.076-3 2.88-3 1.748 0 2.745 1.05 2.807 2.962H4.034c-.041-.954-.404-1.357-1.158-1.357-.753 0-1.17.416-1.17 1.402v3.74c0 .982.43 1.403 1.198 1.403.794 0 1.225-.416 1.225-1.371v-.915H2.823v-1.465h2.92v2.367c-.04 1.91-1.092 2.97-2.865 2.97C1.104 16.84 0 15.78 0 13.845zM10.975 14.974H8.769l-.377 1.714H6.676l2.314-9.41h1.772l2.312 9.397h-1.716l-.383-1.701zm-.336-1.571l-.377-1.747c-.134-.646-.283-1.68-.378-2.313h-.04c-.081.631-.23 1.667-.364 2.313l-.376 1.747h1.535zM22.114 7.27v9.405h-1.626v-2.939c.04-1.102.08-2.182.134-3.24l-.067-.026c-.27.779-.58 1.627-.875 2.473l-.632 1.667h-1.643l-.631-1.667c-.297-.846-.593-1.694-.875-2.473l-.067.026c.053 1.061.093 2.137.134 3.24v2.94H14.35V7.27h1.669l1.533 3.683c.201.497.524 1.357.646 1.747h.051c.122-.39.457-1.247.66-1.747l1.524-3.683h1.681zM27.698 14.974h-2.205l-.38 1.701h-1.716l2.314-9.41h1.772l2.309 9.41h-1.716l-.378-1.701zm-.335-1.571l-.379-1.75c-.134-.646-.282-1.68-.377-2.313h-.041c-.081.63-.23 1.667-.363 2.312l-.375 1.75h1.535z"/>
        </g>
        <g fill="#292929">
            <path d="M62.954 14.744h-2.731l-.498 2.044h-1.157l2.419-9.41h1.198l2.422 9.41H63.45l-.496-2.044zm-.242-1.022l-.767-3.185a23.206 23.206 0 0 1-.337-1.761h-.04a22.052 22.052 0 0 1-.338 1.76l-.767 3.186h2.249zM65.605 14.073v-3.98c0-1.855 1.05-2.891 2.624-2.891 1.614 0 2.61.994 2.705 2.805h-1.092c-.081-1.21-.646-1.775-1.629-1.775-.901 0-1.506.59-1.506 1.854v3.987c0 1.246.631 1.842 1.547 1.842.995 0 1.547-.578 1.655-1.761H71c-.108 1.787-1.103 2.796-2.746 2.796-1.587 0-2.65-1.023-2.65-2.877zM75.992 14.744H73.26l-.498 2.044h-1.157l2.422-9.41h1.198l2.422 9.41h-1.157l-.5-2.044zm-.242-1.022l-.767-3.185a23.206 23.206 0 0 1-.337-1.761h-.04a22.052 22.052 0 0 1-.338 1.76l-.767 3.186h2.25zM79.08 7.378h2.234c1.803 0 2.853 1.048 2.853 2.85v3.71c0 1.802-1.063 2.851-2.84 2.851H79.08V7.378zm2.252 8.362c1.103 0 1.736-.623 1.736-1.842v-3.643c0-1.21-.623-1.829-1.736-1.829H80.19v7.314h1.143zM90.872 15.753v1.035h-4.654v-9.41h4.507V8.4H87.32v3.106h3.162v1.008H87.32v3.24zM99.766 7.378v9.41h-1.092v-4.32c.014-1.023.04-1.936.094-2.85l-.055-.015c-.256.712-.605 1.587-.936 2.473l-.983 2.54h-1.091l-.996-2.54c-.322-.886-.686-1.76-.935-2.473l-.067.014c.054.915.093 1.828.093 2.85v4.316h-1.092V7.378h1.158l1.628 3.938c.23.564.565 1.491.713 1.976h.054c.156-.483.498-1.412.727-1.976l1.629-3.938h1.15zM103.466 13.558l-2.315-6.18h1.157l1.197 3.375c.156.444.349.982.511 1.465h.02c.156-.484.35-1.035.512-1.491l1.198-3.348h1.157l-2.335 6.18v3.225h-1.102v-3.226z"/>
        </g>
        <g fill="#63DC3E">
            <path d="M40.708 13.767h-2.116V9.16l2.116-.38zM43.747 13.767H41.63V8.152l2.117-.4zM44.667 7.238h2.117v6.53h-2.117zM49.824 13.767h-2.117v-5.62l2.117.38zM44.67 14.693h5.152v2.115H44.67z"/>
        </g>
        <path fill="#63DC3E" d="M44.207 23.892c-6.562 0-11.88-5.314-11.88-11.87 0-6.556 5.318-11.87 11.88-11.87 6.561 0 11.88 5.314 11.88 11.87-.006 6.553-5.321 11.864-11.88 11.87zm0-21.402c-5.27 0-9.541 4.268-9.541 9.533s4.272 9.533 9.54 9.533c5.27 0 9.542-4.268 9.542-9.533-.008-5.26-4.275-9.523-9.541-9.53V2.49z"/>
    </g>
</svg>
